# xmcd
#
# Track frame offsets:
#	150
#	23496
#	55554
#	78450
#	100997
#	122363
#	147000
#	166146
#	190731
#	210018
#	226002
#	249349
#	262989
#	282865
#	304836
#
# Disc length: 4253 seconds
#
# Revision: 0
# Processed by: cddbd v1.5.2PL0 Copyright (c) Steve Scherf et al.
# Submitted via: EZCDAudioConverter 2.1.7.1
#
DISCID=ab109b0f
DTITLE=Steel Pulse - Handswort Revolution 2/2
DYEAR=1900
DGENRE=
TTITLE0=Handsworth Revolution [BBC Version]
TTITLE1=Bad Man [BBC Version]
TTITLE2=Prodigal Son [BBC Version]
TTITLE3=Ku Klux Klan [BBC Version]
TTITLE4=Macka Splaff [BBC Version]
TTITLE5=Prediction [BBC Version]
TTITLE6=Revolution Dub [Take 2]
TTITLE7=Bad Man [Dub – Take 1]
TTITLE8=Soldiers [Dub]
TTITLE9=Sound Check [Dub]
TTITLE10=Prodigal Son Dub [Extended Mix]
TTITLE11=Ku Klux Klan [Dub]
TTITLE12=Macka [Dub]
TTITLE13=Prediction [7'' Mix]
TTITLE14=Prediction [Dub – 7'' Mix]
EXTD=
EXTT0=
EXTT1=
EXTT2=
EXTT3=
EXTT4=
EXTT5=
EXTT6=
EXTT7=
EXTT8=
EXTT9=
EXTT10=
EXTT11=
EXTT12=
EXTT13=
EXTT14=
PLAYORDER=
